<mxfile host="app.diagrams.net" modified="2023-04-06T02:54:00.172Z" agent="Mozilla/5.0 (Macintosh; Intel Mac OS X 10.15; rv:109.0) Gecko/20100101 Firefox/111.0" version="21.1.2" etag="C5YZ6wL8_TJuWpZxXxB7" type="github">
  <diagram name="第 1 页" id="VFU1QDDLjrJe9I-w2nKU">
    <mxGraphModel>
      <root>
        <mxCell id="0" />
        <mxCell id="1" parent="0" />
      </root>
    </mxGraphModel>
  </diagram>
</mxfile>
